<svg width="46" height="46" viewBox="0 0 46 46" fill="none" xmlns="http://www.w3.org/2000/svg">
<path d="M42.3331 6.10352e-05H4.51424C2.48904 6.10352e-05 0.84729 1.64181 0.84729 3.66701V41.6041C0.84729 43.6293 2.48904 45.271 4.51424 45.271H42.3331C44.3583 45.271 46 43.6293 46 41.6041V3.66701C46 1.64181 44.3583 6.10352e-05 42.3331 6.10352e-05Z" fill="#00DDB3"/>
<path d="M35.2538 8.9088C36.4923 9.09228 37.3472 10.2465 37.1644 11.4864C36.9816 12.7267 35.8295 13.5843 34.5906 13.4007C32.3967 13.0757 29.1101 16.4921 25.4306 23.5167C20.7332 32.4846 16.361 36.7574 11.7578 36.4164C10.5091 36.3239 9.57245 35.2351 9.66458 33.9851C9.75672 32.7349 10.8432 31.7955 12.0921 31.888C14.3652 32.0564 17.7041 28.4945 21.4165 21.407C26.144 12.3817 30.5756 8.21572 35.2538 8.9088Z" fill="white"/>
</svg>
