<svg width="97" height="95" viewBox="0 0 97 95" fill="none" xmlns="http://www.w3.org/2000/svg">
<g clip-path="url(#clip0_53561_251)">
<path d="M79.8229 0H17.1771C7.69044 0 0 7.725 0 17.2543V77.7457C0 87.275 7.69044 95 17.1771 95H79.8229C89.3096 95 97 87.275 97 77.7457V17.2543C97 7.725 89.3096 0 79.8229 0Z" fill="#330000"/>
<path d="M47.0046 57.0112H31.9733L28.915 66.5543C28.8733 66.7283 28.7726 66.8823 28.63 66.9897C28.4875 67.097 28.3121 67.1511 28.1341 67.1426H20.5209C20.0867 67.1426 19.9349 66.9029 20.0654 66.4236L33.0794 28.7743C33.2097 28.3822 33.3399 27.9355 33.47 27.4343C33.6402 26.5623 33.7274 25.6759 33.7303 24.7872C33.7215 24.7251 33.7271 24.6617 33.7469 24.6022C33.7667 24.5426 33.8 24.4885 33.8442 24.4441C33.8884 24.3997 33.9422 24.3662 34.0015 24.3463C34.0608 24.3265 34.1239 24.3208 34.1858 24.3296H44.5319C44.835 24.3296 45.0085 24.4386 45.0525 24.6565L59.8237 66.4889C59.9538 66.925 59.8236 67.1429 59.4332 67.1426H50.9739C50.8286 67.1587 50.6824 67.1212 50.5627 67.037C50.443 66.9528 50.3578 66.8277 50.3232 66.685L47.0046 57.0112ZM34.3158 48.7755H44.597C44.3367 47.9044 44.0331 46.9239 43.6861 45.8341C43.3383 44.7454 42.9696 43.5798 42.5799 42.3372C42.1894 41.0953 41.7989 39.8534 41.4085 38.6115C41.0181 37.3696 40.6603 36.1713 40.3349 35.0165C40.0095 33.8625 39.7167 32.8058 39.4565 31.8464H39.3914C39.0251 33.6117 38.569 35.357 38.025 37.0754C37.4169 39.0364 36.7987 41.0408 36.1703 43.0889C35.541 45.1376 34.9228 47.0332 34.3158 48.7755H34.3158Z" fill="#FF9A00"/>
<path d="M68.6074 31.2582C67.9437 31.285 67.2819 31.1707 66.6652 30.9229C66.0485 30.6751 65.4908 30.2994 65.0285 29.8202C64.5676 29.3203 64.2096 28.7338 63.975 28.0944C63.7405 27.455 63.6341 26.7753 63.6619 26.0945C63.6383 25.4204 63.7564 24.7489 64.0087 24.1238C64.261 23.4987 64.6417 22.9341 65.126 22.4668C65.6056 22.0044 66.1718 21.6421 66.7917 21.4009C67.4116 21.1597 68.0729 21.0444 68.7375 21.0616C70.2993 21.0616 71.5248 21.53 72.4141 22.4668C72.8629 22.9537 73.2118 23.5247 73.4407 24.1472C73.6696 24.7697 73.774 25.4314 73.7479 26.0945C73.7751 26.778 73.6653 27.46 73.425 28.1C73.1847 28.7401 72.8187 29.325 72.3489 29.8202C71.8579 30.3064 71.272 30.6852 70.6281 30.9327C69.9841 31.1802 69.2961 31.291 68.6074 31.2582ZM64.1174 66.4889V35.2453C64.1174 34.8532 64.2903 34.657 64.638 34.657H72.6418C72.9885 34.657 73.1621 34.8531 73.1624 35.2453V66.4889C73.1624 66.925 72.9889 67.1429 72.6418 67.1426H64.7031C64.3128 67.1426 64.1175 66.9247 64.1174 66.4889V66.4889Z" fill="#FF9A00"/>
</g>
<defs>
<clipPath id="clip0_53561_251">
<rect width="97" height="95" fill="white"/>
</clipPath>
</defs>
</svg>
