<svg width="97" height="95" viewBox="0 0 97 95" fill="none" xmlns="http://www.w3.org/2000/svg">
<g clip-path="url(#clip0_53561_241)">
<path d="M79.8229 0H17.1771C7.69044 0 0 7.725 0 17.2543V77.7457C0 87.275 7.69044 95 17.1771 95H79.8229C89.3096 95 97 87.275 97 77.7457V17.2543C97 7.725 89.3096 0 79.8229 0Z" fill="#001E36"/>
<path d="M21.8418 66.6199V24.8528C21.8418 24.5484 21.9721 24.3953 22.2324 24.3953C22.9257 24.3953 23.5587 24.385 24.5135 24.3625C25.4672 24.3411 26.4975 24.3194 27.6043 24.2972C28.7106 24.2757 29.882 24.2539 31.1183 24.2318C32.3545 24.2104 33.5799 24.1995 34.7946 24.1991C38.0909 24.1991 40.8673 24.6131 43.1237 25.441C45.1591 26.1326 47.0153 27.2714 48.5572 28.7745C49.8643 30.0774 50.8744 31.6496 51.5178 33.3827C52.1266 35.0693 52.435 36.8504 52.429 38.6444C52.429 42.1311 51.6264 45.0071 50.0214 47.2723C48.4056 49.5469 46.1346 51.2693 43.5142 52.2073C40.7812 53.2316 37.7442 53.5791 34.4043 53.5791C33.4496 53.5791 32.7771 53.5682 32.387 53.5463C31.9967 53.5248 31.4111 53.5139 30.6303 53.5136V66.5546C30.6416 66.6345 30.6343 66.7159 30.6089 66.7925C30.5834 66.8691 30.5406 66.9387 30.4838 66.9958C30.427 67.0528 30.3577 67.0958 30.2814 67.1214C30.2052 67.1469 30.1241 67.1542 30.0445 67.1428H22.2973C21.9934 67.1428 21.8418 66.9692 21.8418 66.6199ZM30.6302 32.2388V45.8615C31.1935 45.9054 31.714 45.9272 32.1918 45.9268H34.3392C35.9192 45.9216 37.4887 45.6699 38.9918 45.1808C40.281 44.7962 41.4329 44.0474 42.3104 43.0238C43.1562 42.0219 43.5792 40.6275 43.5794 38.8406C43.6137 37.5762 43.2861 36.3285 42.6356 35.2455C41.9518 34.1983 40.9635 33.3882 39.8051 32.9252C38.2926 32.3346 36.6769 32.0567 35.0549 32.1082C34.0137 32.1082 33.0919 32.119 32.2895 32.1408C31.4863 32.1633 30.9332 32.1959 30.6302 32.2388V32.2388Z" fill="#31A8FF"/>
<path d="M77.5883 43.3846C76.3654 42.7534 75.063 42.2916 73.7166 42.0119C72.233 41.67 70.7163 41.4946 69.1942 41.489C68.3708 41.4666 67.5487 41.5657 66.754 41.7832C66.2482 41.8963 65.7986 42.1858 65.485 42.6002C65.273 42.9317 65.1601 43.3173 65.1598 43.7114C65.1717 44.0937 65.3089 44.4613 65.5502 44.7572C65.9303 45.2038 66.3947 45.5703 66.9166 45.8357C67.8444 46.3375 68.8004 46.7849 69.7797 47.1756C71.9636 47.9099 74.0504 48.9086 75.994 50.1496C77.318 50.989 78.4137 52.1458 79.1825 53.5158C79.829 54.8132 80.1527 56.2486 80.126 57.6991C80.165 59.6145 79.6201 61.4961 78.5644 63.0916C77.4342 64.7112 75.8643 65.9704 74.0418 66.7192C72.0674 67.5904 69.6272 68.0262 66.7214 68.0265C64.8755 68.0453 63.0326 67.87 61.223 67.5036C59.7971 67.241 58.4092 66.8019 57.0909 66.1963C56.9486 66.1226 56.8303 66.0096 56.7496 65.8707C56.6689 65.7318 56.6293 65.5726 56.6354 65.4119V58.3527C56.6276 58.2836 56.6386 58.2137 56.6673 58.1503C56.696 58.087 56.7412 58.0327 56.7982 57.9932C56.8541 57.9615 56.9183 57.9476 56.9822 57.9535C57.0461 57.9593 57.1068 57.9846 57.156 58.0259C58.7128 58.948 60.4033 59.6206 62.1665 60.0195C63.7205 60.4108 65.3146 60.6191 66.9166 60.6404C68.4346 60.6404 69.5517 60.4444 70.2678 60.0522C70.5911 59.9035 70.8647 59.6638 71.0552 59.3622C71.2458 59.0606 71.3453 58.7099 71.3415 58.3527C71.3415 57.787 71.0162 57.2423 70.3655 56.7187C69.7148 56.1957 68.3917 55.5639 66.396 54.8231C64.3529 54.1087 62.4156 53.1193 60.6372 51.8818C59.3653 50.9932 58.3179 49.818 57.579 48.4502C56.939 47.1622 56.6155 45.739 56.6354 44.2996C56.6318 42.5702 57.1048 40.8735 58.0019 39.3974C59.0248 37.7719 60.4937 36.4781 62.2316 35.6717C64.14 34.7137 66.5259 34.2344 69.3894 34.2337C71.0664 34.2202 72.7418 34.3404 74.3999 34.5932C75.6005 34.7462 76.7744 35.0651 77.8881 35.5409C77.9764 35.5664 78.0577 35.6121 78.1254 35.6745C78.1931 35.7369 78.2455 35.8143 78.2784 35.9004C78.3224 36.0601 78.3443 36.225 78.3436 36.3907V42.9924C78.3481 43.0692 78.3324 43.1458 78.2982 43.2147C78.2639 43.2835 78.2123 43.3421 78.1484 43.3846C78.0614 43.428 77.9655 43.4507 77.8684 43.4507C77.7712 43.4507 77.6753 43.4281 77.5883 43.3846V43.3846Z" fill="#31A8FF"/>
</g>
<defs>
<clipPath id="clip0_53561_241">
<rect width="97" height="95" fill="white"/>
</clipPath>
</defs>
</svg>
