<svg width="34" height="31" viewBox="0 0 34 31" fill="none" xmlns="http://www.w3.org/2000/svg">
<path d="M14.2778 14.0654C15.8236 13.3077 16.6306 12.1612 16.6306 10.3766C16.6306 6.85738 14.0736 6 11.1229 6H3V23.666H11.3514C14.4819 23.666 17.4229 22.1257 17.4229 18.5367C17.4229 16.3185 16.3972 14.6785 14.2778 14.0654ZM6.78681 9.01578H10.3403C11.7063 9.01578 12.9361 9.40958 12.9361 11.0346C12.9361 12.535 11.9785 13.1382 10.6271 13.1382H6.78681V9.01578ZM10.8361 20.6652H6.78681V15.8001H10.9139C12.5813 15.8001 13.6361 16.5129 13.6361 18.3223C13.6361 20.1069 12.3771 20.6652 10.8361 20.6652ZM28.2632 8.66685H21.2778V6.92717H28.2632V8.66685ZM31 17.455C31 13.6716 28.8417 10.5162 24.9285 10.5162C21.1271 10.5162 18.5458 13.4472 18.5458 17.2855C18.5458 21.2683 20.991 24 24.9285 24C27.9083 24 29.8382 22.6242 30.7667 19.6981H27.7431C27.4174 20.7898 26.0757 21.368 25.0354 21.368C23.0278 21.368 21.9729 20.1617 21.9729 18.113H30.9708C30.9854 17.9036 31 17.6793 31 17.455ZM21.9778 15.8998C22.0896 14.2199 23.1785 13.1681 24.8215 13.1681C26.5424 13.1681 27.4076 14.2049 27.5535 15.8998H21.9778Z" fill="#9E9E9E"/>
</svg>
