<svg width="32" height="32" viewBox="0 0 32 32" fill="none" xmlns="http://www.w3.org/2000/svg">
<path d="M7.99999 20C6.88888 20 5.94443 19.6111 5.16666 18.8333C4.38888 18.0555 3.99999 17.1111 3.99999 16V10.6667H21.3667C21.4778 9.93333 21.7778 9.27777 22.2667 8.69999C22.7555 8.12222 23.3555 7.71111 24.0667 7.46666L30.2333 5.39999L31.0667 7.93333L24.9 9.99999C24.6333 10.0889 24.4167 10.25 24.25 10.4833C24.0833 10.7167 24 10.9778 24 11.2667V16C24 17.1111 23.6111 18.0555 22.8333 18.8333C22.0555 19.6111 21.1111 20 20 20H7.99999ZM7.99999 17.3333H20C20.3778 17.3333 20.6944 17.2056 20.95 16.95C21.2055 16.6944 21.3333 16.3778 21.3333 16V13.3333H6.66666V16C6.66666 16.3778 6.79443 16.6944 7.04999 16.95C7.30555 17.2056 7.62221 17.3333 7.99999 17.3333ZM12 28V24H2.66666V21.3333H12C12.7333 21.3333 13.3611 21.5944 13.8833 22.1167C14.4055 22.6389 14.6667 23.2667 14.6667 24V28H12ZM17.3333 28V24C17.3333 23.2667 17.5944 22.6389 18.1167 22.1167C18.6389 21.5944 19.2667 21.3333 20 21.3333H29.3333V24H20V28H17.3333Z" fill="black"/>
</svg>
