<svg width="32" height="32" viewBox="0 0 32 32" fill="none" xmlns="http://www.w3.org/2000/svg">
<path d="M27.5333 12.5L25.6667 10.6333L26.6667 9.60001L22.4 5.33335L21.3667 6.33335L19.4667 4.43335L20.4667 3.40001C20.9778 2.8889 21.6111 2.6389 22.3667 2.65001C23.1222 2.66112 23.7556 2.92224 24.2667 3.43335L28.5667 7.73335C29.0778 8.24446 29.3333 8.87224 29.3333 9.61668C29.3333 10.3611 29.0778 10.9889 28.5667 11.5L27.5333 12.5ZM11.5333 28.5333C11.0222 29.0445 10.3945 29.3 9.65001 29.3C8.90557 29.3 8.27779 29.0445 7.76668 28.5333L3.46668 24.2333C2.95557 23.7222 2.70001 23.0945 2.70001 22.35C2.70001 21.6056 2.95557 20.9778 3.46668 20.4667L4.46668 19.4667L6.36668 21.3667L5.33335 22.3667L9.63335 26.6667L10.6333 25.6333L12.5333 27.5333L11.5333 28.5333ZM24.7667 17.3333L26.6667 15.4333L16.5667 5.33335L14.6667 7.23335L24.7667 17.3333ZM15.4333 26.6667L17.3333 24.7333L7.26668 14.6667L5.33335 16.5667L15.4333 26.6667ZM15.2333 18.8667L18.9 15.2333L16.7667 13.1L13.1333 16.7667L15.2333 18.8667ZM17.3333 28.5333C16.8222 29.0445 16.1889 29.3 15.4333 29.3C14.6778 29.3 14.0445 29.0445 13.5333 28.5333L3.46668 18.4667C2.95557 17.9556 2.70001 17.3222 2.70001 16.5667C2.70001 15.8111 2.95557 15.1778 3.46668 14.6667L5.36668 12.7667C5.87779 12.2556 6.50557 12 7.25001 12C7.99446 12 8.62223 12.2556 9.13335 12.7667L11.2333 14.8667L14.9 11.2L12.8 9.13335C12.2889 8.62224 12.0333 7.9889 12.0333 7.23335C12.0333 6.47779 12.2889 5.84446 12.8 5.33335L14.7 3.43335C15.2111 2.92224 15.8389 2.66668 16.5833 2.66668C17.3278 2.66668 17.9556 2.92224 18.4667 3.43335L28.5667 13.5333C29.0778 14.0445 29.3333 14.6722 29.3333 15.4167C29.3333 16.1611 29.0778 16.7889 28.5667 17.3L26.6667 19.2C26.1556 19.7111 25.5222 19.9667 24.7667 19.9667C24.0111 19.9667 23.3778 19.7111 22.8667 19.2L20.8 17.1L17.1333 20.7667L19.2333 22.8667C19.7445 23.3778 20 24.0056 20 24.75C20 25.4945 19.7445 26.1222 19.2333 26.6333L17.3333 28.5333Z" fill="black"/>
</svg>
