<svg width="34" height="36" viewBox="0 0 34 36" fill="none" xmlns="http://www.w3.org/2000/svg">
<path d="M12.6964 24.9352C12.6964 25.0427 12.5758 25.1287 12.4238 25.1287C12.2508 25.1448 12.1302 25.0588 12.1302 24.9352C12.1302 24.8276 12.2508 24.7416 12.4028 24.7416C12.5601 24.7255 12.6964 24.8115 12.6964 24.9352ZM11.0661 24.6932C11.0294 24.8008 11.1343 24.9244 11.2915 24.9567C11.4278 25.0104 11.5851 24.9567 11.6165 24.8491C11.648 24.7416 11.5484 24.618 11.3911 24.5696C11.2548 24.5319 11.1028 24.5857 11.0661 24.6932ZM13.3831 24.6018C13.231 24.6395 13.1262 24.7416 13.1419 24.8653C13.1577 24.9728 13.294 25.0427 13.4512 25.0051C13.6032 24.9674 13.7081 24.8653 13.6923 24.7577C13.6766 24.6556 13.5351 24.5857 13.3831 24.6018ZM16.8323 4C9.56169 4 4 9.6612 4 17.1181C4 23.0804 7.65887 28.1824 12.8851 29.9781C13.556 30.1017 13.7919 29.677 13.7919 29.3276C13.7919 28.9942 13.7762 27.1556 13.7762 26.0265C13.7762 26.0265 10.1069 26.833 9.33629 24.4244C9.33629 24.4244 8.73871 22.8599 7.87903 22.4567C7.87903 22.4567 6.67863 21.6126 7.9629 21.6288C7.9629 21.6288 9.26814 21.7363 9.98629 23.0158C11.1343 25.0911 13.0581 24.4943 13.8077 24.1395C13.9282 23.2793 14.269 22.6825 14.6464 22.3277C11.7161 21.9943 8.75968 21.5589 8.75968 16.3869C8.75968 14.9084 9.15806 14.1665 9.99677 13.2203C9.86048 12.8708 9.41492 11.43 10.1331 9.56981C11.2286 9.22035 13.75 11.0214 13.75 11.0214C14.7984 10.7203 15.9254 10.5644 17.0419 10.5644C18.1585 10.5644 19.2855 10.7203 20.3339 11.0214C20.3339 11.0214 22.8552 9.21497 23.9508 9.56981C24.669 11.4354 24.2234 12.8708 24.0871 13.2203C24.9258 14.1719 25.4395 14.9138 25.4395 16.3869C25.4395 21.575 22.352 21.989 19.4218 22.3277C19.904 22.7524 20.3129 23.5588 20.3129 24.8223C20.3129 26.6341 20.2972 28.876 20.2972 29.3168C20.2972 29.6663 20.5383 30.091 21.204 29.9673C26.446 28.1824 30 23.0804 30 17.1181C30 9.6612 24.1028 4 16.8323 4ZM9.09516 22.5427C9.02702 22.5965 9.04274 22.7201 9.13185 22.8223C9.21573 22.9083 9.33629 22.9459 9.40444 22.8761C9.47258 22.8223 9.45685 22.6986 9.36774 22.5965C9.28387 22.5105 9.16331 22.4728 9.09516 22.5427ZM8.52903 22.1072C8.49234 22.1771 8.54476 22.2632 8.6496 22.3169C8.73347 22.3707 8.83831 22.3546 8.875 22.2793C8.91169 22.2094 8.85927 22.1234 8.75444 22.0696C8.6496 22.0374 8.56573 22.0535 8.52903 22.1072ZM10.2274 24.0212C10.1435 24.0911 10.175 24.2524 10.2956 24.3545C10.4161 24.4782 10.5681 24.4943 10.6363 24.4083C10.7044 24.3384 10.673 24.1771 10.5681 24.075C10.4528 23.9513 10.2956 23.9352 10.2274 24.0212ZM9.62984 23.2309C9.54597 23.2846 9.54597 23.4244 9.62984 23.5481C9.71371 23.6717 9.85524 23.7255 9.92339 23.6717C10.0073 23.6018 10.0073 23.4621 9.92339 23.3384C9.85 23.2148 9.71371 23.161 9.62984 23.2309Z" fill="#9E9E9E"/>
</svg>
