<svg width="32" height="32" viewBox="0 0 32 32" fill="none" xmlns="http://www.w3.org/2000/svg">
<path d="M13.3333 29.3333L12.6667 17.3333L8.43333 14.9L7.96667 16.6333L10.6667 21.3333L8.36667 22.6667L5.06667 17L6.66667 11.2667L14.3333 6.86668L10.6667 3.20001L12.5333 1.33334L18.6667 7.43334L13.8667 10.2L15.4667 11.6L26.4 2.66668L28 4.53334L16.6667 16L16 29.3333H13.3333ZM6.66667 9.33334C5.93333 9.33334 5.30556 9.07223 4.78333 8.55001C4.26111 8.02779 4 7.40001 4 6.66668C4 5.93334 4.26111 5.30557 4.78333 4.78334C5.30556 4.26112 5.93333 4.00001 6.66667 4.00001C7.4 4.00001 8.02778 4.26112 8.55 4.78334C9.07222 5.30557 9.33333 5.93334 9.33333 6.66668C9.33333 7.40001 9.07222 8.02779 8.55 8.55001C8.02778 9.07223 7.4 9.33334 6.66667 9.33334Z" fill="black"/>
</svg>
