<svg width="34" height="39" viewBox="0 0 34 39" fill="none" xmlns="http://www.w3.org/2000/svg">
<path d="M9.82098 32H4.42946V14.6415H9.82098V32ZM7.12232 12.2737C5.39866 12.2737 4 10.846 4 9.12232C4 8.29423 4.32896 7.50006 4.91451 6.91451C5.50006 6.32896 6.29423 6 7.12232 6C7.95041 6 8.74459 6.32896 9.33014 6.91451C9.91569 7.50006 10.2446 8.29423 10.2446 9.12232C10.2446 10.846 8.84598 12.2737 7.12232 12.2737ZM29.9942 32H24.6143V23.55C24.6143 21.5362 24.5737 18.9536 21.8112 18.9536C19.008 18.9536 18.5786 21.1415 18.5786 23.4049V32H13.1929V14.6415H18.3638V17.0094H18.4393C19.1589 15.6455 20.9174 14.2063 23.5406 14.2063C28.996 14.2063 30 17.7987 30 22.4647V32H29.9942Z" fill="#9E9E9E"/>
</svg>
