<svg width="32" height="32" viewBox="0 0 32 32" fill="none" xmlns="http://www.w3.org/2000/svg">
<path d="M20.6667 30.6667C18.3556 30.6667 16.3167 29.9778 14.55 28.6C12.7833 27.2222 11.6111 25.4667 11.0333 23.3333C12.0333 23.3778 13.0222 23.2778 14 23.0333C14.9778 22.7889 15.9111 22.4445 16.8 22H22.2667C22.2889 21.7556 22.3056 21.5167 22.3167 21.2833C22.3278 21.05 22.3333 20.8111 22.3333 20.5667C22.3333 20.3667 22.3278 20.1611 22.3167 19.95C22.3056 19.7389 22.2889 19.5333 22.2667 19.3333H20.3C20.6556 18.9333 20.9833 18.5111 21.2833 18.0667C21.5833 17.6222 21.8556 17.1556 22.1 16.6667H26.8C26.3556 16 25.8222 15.4167 25.2 14.9167C24.5778 14.4167 23.8778 14.0333 23.1 13.7667C23.2111 13.3222 23.2833 12.8667 23.3167 12.4C23.35 11.9333 23.3556 11.4778 23.3333 11.0333C25.4667 11.6111 27.2222 12.7833 28.6 14.55C29.9778 16.3167 30.6667 18.3556 30.6667 20.6667C30.6667 23.4445 29.6944 25.8056 27.75 27.75C25.8056 29.6945 23.4444 30.6667 20.6667 30.6667ZM17.5 27.2667C17.3444 26.8222 17.2056 26.3889 17.0833 25.9667C16.9611 25.5445 16.8556 25.1111 16.7667 24.6667H14.5333C14.9111 25.2222 15.35 25.7222 15.85 26.1667C16.35 26.6111 16.9 26.9778 17.5 27.2667ZM20.6667 27.7333C20.9333 27.2445 21.1611 26.7445 21.35 26.2333C21.5389 25.7222 21.7 25.2 21.8333 24.6667H19.5C19.6333 25.2 19.8 25.7222 20 26.2333C20.2 26.7445 20.4222 27.2445 20.6667 27.7333ZM23.8333 27.2667C24.4333 26.9778 24.9833 26.6111 25.4833 26.1667C25.9833 25.7222 26.4222 25.2222 26.8 24.6667H24.5667C24.4556 25.1111 24.3444 25.5445 24.2333 25.9667C24.1222 26.3889 23.9889 26.8222 23.8333 27.2667ZM24.9333 22H27.8667C27.9111 21.7778 27.9444 21.5611 27.9667 21.35C27.9889 21.1389 28 20.9111 28 20.6667C28 20.4222 27.9889 20.1945 27.9667 19.9833C27.9444 19.7722 27.9111 19.5556 27.8667 19.3333H24.9333C24.9556 19.5333 24.9722 19.7389 24.9833 19.95C24.9944 20.1611 25 20.3667 25 20.5667C25 20.8111 24.9944 21.05 24.9833 21.2833C24.9722 21.5167 24.9556 21.7556 24.9333 22ZM11.3333 21.3333C8.55556 21.3333 6.19445 20.3611 4.25 18.4167C2.30556 16.4722 1.33334 14.1111 1.33334 11.3333C1.33334 8.55557 2.30556 6.19445 4.25 4.25001C6.19445 2.30557 8.55556 1.33334 11.3333 1.33334C14.1111 1.33334 16.4722 2.30557 18.4167 4.25001C20.3611 6.19445 21.3333 8.55557 21.3333 11.3333C21.3333 14.1111 20.3611 16.4722 18.4167 18.4167C16.4722 20.3611 14.1111 21.3333 11.3333 21.3333ZM11.3333 18.6667C13.3556 18.6667 15.0833 17.95 16.5167 16.5167C17.95 15.0833 18.6667 13.3556 18.6667 11.3333C18.6667 9.31112 17.95 7.58334 16.5167 6.15001C15.0833 4.71668 13.3556 4.00001 11.3333 4.00001C9.31111 4.00001 7.58334 4.71668 6.15 6.15001C4.71667 7.58334 4 9.31112 4 11.3333C4 13.3556 4.71667 15.0833 6.15 16.5167C7.58334 17.95 9.31111 18.6667 11.3333 18.6667ZM8 10.6667C8.37778 10.6667 8.69445 10.5389 8.95 10.2833C9.20556 10.0278 9.33334 9.71112 9.33334 9.33334C9.33334 8.95557 9.20556 8.6389 8.95 8.38334C8.69445 8.12779 8.37778 8.00001 8 8.00001C7.62223 8.00001 7.30556 8.12779 7.05 8.38334C6.79445 8.6389 6.66667 8.95557 6.66667 9.33334C6.66667 9.71112 6.79445 10.0278 7.05 10.2833C7.30556 10.5389 7.62223 10.6667 8 10.6667ZM11.3333 16.5333C12.4 16.5333 13.35 16.2333 14.1833 15.6333C15.0167 15.0333 15.6222 14.2667 16 13.3333H6.66667C7.04445 14.2667 7.65 15.0333 8.48334 15.6333C9.31667 16.2333 10.2667 16.5333 11.3333 16.5333ZM14.6667 10.6667C15.0444 10.6667 15.3611 10.5389 15.6167 10.2833C15.8722 10.0278 16 9.71112 16 9.33334C16 8.95557 15.8722 8.6389 15.6167 8.38334C15.3611 8.12779 15.0444 8.00001 14.6667 8.00001C14.2889 8.00001 13.9722 8.12779 13.7167 8.38334C13.4611 8.6389 13.3333 8.95557 13.3333 9.33334C13.3333 9.71112 13.4611 10.0278 13.7167 10.2833C13.9722 10.5389 14.2889 10.6667 14.6667 10.6667Z" fill="black"/>
</svg>
