<svg width="34" height="34" viewBox="0 0 34 34" fill="none" xmlns="http://www.w3.org/2000/svg">
<g clip-path="url(#clip0_53763_155)">
<path d="M15.0825 17.5588L16.5 16.5245L17.9044 17.5462C18.4162 17.9119 19.1119 17.4453 18.9281 16.8525L18.3769 15.1371L19.9519 13.9389C20.4375 13.5857 20.1619 12.829 19.5319 12.829H17.6944L17.13 11.1389C16.9331 10.5587 16.08 10.5587 15.8831 11.1389L15.3056 12.829H13.455C12.8381 12.829 12.5625 13.5857 13.0481 13.9515L14.61 15.1497L14.0588 16.8651C13.875 17.4579 14.5706 17.9246 15.0825 17.5588ZM8.625 28.7338C8.625 29.5914 9.50438 30.1968 10.3575 29.932L16.5 27.9644L22.6425 29.932C23.4956 30.2095 24.375 29.604 24.375 28.7338V20.7498C26.0025 18.9714 27 16.6507 27 14.0903C27 8.51539 22.3013 4 16.5 4C10.6987 4 6 8.51539 6 14.0903C6 16.6507 6.9975 18.9714 8.625 20.7498V28.7338ZM16.5 6.52257C20.8444 6.52257 24.375 9.91542 24.375 14.0903C24.375 18.2651 20.8444 21.658 16.5 21.658C12.1556 21.658 8.625 18.2651 8.625 14.0903C8.625 9.91542 12.1556 6.52257 16.5 6.52257Z" fill="#9E9E9E"/>
</g>
<defs>
<clipPath id="clip0_53763_155">
<rect width="34" height="34" fill="white"/>
</clipPath>
</defs>
</svg>
